{
  "accessors": [
    {
      "bufferView": 2,
      "componentType": 5126,
      "count": 2007,
      "max": [
        7.6799030303955078,
        25.048173904418945,
        4.5721783638000488
      ],
      "min": [
        -6.6906118392944336,
        3.4084405899047852,
        -4.2668328285217285
      ],
      "type": "VEC3"
    },
    {
      "bufferView": 2,
      "byteOffset": 24084,
      "componentType": 5126,
      "count": 2007,
      "max": [
        0.99982929229736328,
        0.99925738573074341,
        0.99994605779647827
      ],
      "min": [
        -0.99885892868041992,
        -0.95663774013519287,
        -0.99950712919235229
      ],
      "type": "VEC3"
    },
    {
      "bufferView": 3,
      "componentType": 5126,
      "count": 2007,
      "max": [
        0.99315708875656128,
        0.9999396800994873,
        0.999886155128479,
        1
      ],
      "min": [
        -0.98846781253814697,
        -0.99762904644012451,
        -0.99934887886047363,
        -1
      ],
      "type": "VEC4"
    },
    {
      "bufferView": 1,
      "componentType": 5126,
      "count": 2007,
      "max": [
        0.59029334783554077,
        0.9920085072517395
      ],
      "min": [
        0.007991500198841095,
        0.0079915523529052734
      ],
      "type": "VEC2"
    },
    {
      "bufferView": 0,
      "componentType": 5125,
      "count": 10734,
      "max": [
        2006
      ],
      "min": [
        0
      ],
      "type": "SCALAR"
    }
  ],
  "asset": {
    "extras": {
      "author": "3DMaesen (https://sketchfab.com/bumstrum)",
      "license": "CC-BY-4.0 (http://creativecommons.org/licenses/by/4.0/)",
      "source": "https://sketchfab.com/models/046563449b144c67a2f8cc54bf86835b",
      "title": "Hand"
    },
    "generator": "Sketchfab-3.42.3",
    "version": "2.0"
  },
  "bufferViews": [
    {
      "buffer": 0,
      "byteLength": 42936,
      "byteOffset": 0,
      "name": "floatBufferViews",
      "target": 34963
    },
    {
      "buffer": 0,
      "byteLength": 16056,
      "byteOffset": 42936,
      "byteStride": 8,
      "name": "floatBufferViews",
      "target": 34962
    },
    {
      "buffer": 0,
      "byteLength": 48168,
      "byteOffset": 58992,
      "byteStride": 12,
      "name": "floatBufferViews",
      "target": 34962
    },
    {
      "buffer": 0,
      "byteLength": 32112,
      "byteOffset": 107160,
      "byteStride": 16,
      "name": "floatBufferViews",
      "target": 34962
    }
  ],
  "buffers": [
    {
      "byteLength": 139272,
      "uri": "scene.bin"
    }
  ],
  "images": [
    {
      "uri": "textures/Scene_-_Root_normal.png"
    },
    {
      "uri": "textures/Scene_-_Root_metallicRoughness.png"
    },
    {
      "uri": "textures/Scene_-_Root_baseColor.png"
    }
  ],
  "materials": [
    {
      "doubleSided": false,
      "name": "Scene_-_Root",
      "normalTexture": {
        "index": 0,
        "scale": 1,
        "texCoord": 0
      },
      "occlusionTexture": {
        "index": 1,
        "strength": 1,
        "texCoord": 0
      },
      "pbrMetallicRoughness": {
        "baseColorFactor": [
          1,
          1,
          1,
          1
        ],
        "baseColorTexture": {
          "index": 2,
          "texCoord": 0
        },
        "metallicFactor": 1,
        "metallicRoughnessTexture": {
          "index": 1,
          "texCoord": 0
        },
        "roughnessFactor": 1
      }
    }
  ],
  "meshes": [
    {
      "name": "handlow__0",
      "primitives": [
        {
          "attributes": {
            "NORMAL": 1,
            "POSITION": 0,
            "TANGENT": 2,
            "TEXCOORD_0": 3
          },
          "indices": 4,
          "material": 0,
          "mode": 4
        }
      ]
    }
  ],
  "nodes": [
    {
      "children": [
        1
      ],
      "name": "RootNode (gltf orientation matrix)",
      "rotation": [
        -0.70710678118654746,
        -0,
        -0,
        0.70710678118654757
      ]
    },
    {
      "children": [
        2
      ],
      "name": "RootNode (model correction matrix)"
    },
    {
      "children": [
        3
      ],
      "matrix": [
        1,
        0,
        0,
        0,
        0,
        0,
        1,
        0,
        0,
        -1,
        0,
        0,
        0,
        0,
        0,
        1
      ],
      "name": "f66bc81a9f344a40ac66a2994f1e53ef.fbx"
    },
    {
      "children": [
        4
      ],
      "name": "RootNode"
    },
    {
      "children": [
        5
      ],
      "matrix": [
        -0.58557353574336424,
        0.79246539904896751,
        -0.17059374416190093,
        0,
        0.35056559582875246,
        0.43732056628250626,
        0.82816332044324437,
        0,
        0.73089492901390907,
        0.42514622615814063,
        -0.53389445504260902,
        0,
        -1.0250174999237061,
        2.7185244560241699,
        -1.6653345369377348e-16,
        1
      ],
      "name": "handlow"
    },
    {
      "mesh": 0,
      "name": "handlow__0"
    }
  ],
  "samplers": [
    {
      "magFilter": 9729,
      "minFilter": 9987,
      "wrapS": 10497,
      "wrapT": 10497
    }
  ],
  "scene": 0,
  "scenes": [
    {
      "name": "OSG_Scene",
      "nodes": [
        0
      ]
    }
  ],
  "textures": [
    {
      "sampler": 0,
      "source": 0
    },
    {
      "sampler": 0,
      "source": 1
    },
    {
      "sampler": 0,
      "source": 2
    }
  ]
}

